<svg xmlns="http://www.w3.org/2000/svg" width="322" height="78" fill="none"><path fill="#fff" d="M.5 39.005 28.345 11.16v13.922H56.19L28.345 45.966V66.85zM97.957 39.005 70.112 66.85V52.927H42.267l27.845-20.883V11.16zM152.075 63.454v-48.73h11.779v20.605h.642l16.109-20.606h13.872l-17.275 21.748 17.584 26.983H180.7l-12.135-19.155-4.711 5.949v13.206zM110.321 63.454v-6.71l23.675-32.455h-23.651v-9.566h38.546v6.71L125.216 53.89h23.651v9.565zM307.119 64.215q-4.902 0-8.542-2.45-3.617-2.452-5.616-6.71-1.999-4.26-1.999-9.709 0-5.496 2.023-9.78 2.046-4.282 5.663-6.71 3.617-2.45 8.399-2.45 3.664 0 6.639 1.428 2.974 1.404 4.902 3.973 1.95 2.546 2.45 5.949h-4.283q-.666-3.093-3.212-5.282-2.522-2.214-6.424-2.213-3.498 0-6.187 1.903-2.688 1.88-4.211 5.259-1.5 3.354-1.499 7.78 0 4.45 1.475 7.876 1.475 3.403 4.14 5.33 2.689 1.928 6.282 1.928 2.427 0 4.425-.905a9.16 9.16 0 0 0 3.379-2.617q1.38-1.69 1.856-4.021h4.283q-.475 3.308-2.356 5.9-1.856 2.57-4.83 4.046-2.95 1.475-6.757 1.475M262.967 40.61v22.843h-4.236V26.905h4.117v5.734h.381q1.284-2.807 3.997-4.497 2.736-1.713 6.758-1.713 3.688 0 6.472 1.546 2.807 1.524 4.354 4.497 1.57 2.974 1.57 7.305v23.676h-4.235V40.039q0-4.497-2.522-7.114-2.498-2.618-6.71-2.618-2.88 0-5.116 1.238-2.237 1.236-3.545 3.569-1.285 2.307-1.285 5.496M229.794 77.16q-1.261 0-2.356-.238t-1.737-.524l1.142-3.735q2.166.666 3.855.475 1.689-.166 2.998-1.522 1.309-1.333 2.332-4.093l1.332-3.712-13.443-36.905h4.592l10.85 30.957h.333l10.85-30.957h4.593l-15.467 42.33q-.975 2.641-2.403 4.402-1.428 1.785-3.307 2.641-1.857.88-4.164.88M221.737 34.924l-3.878 1.095a10.2 10.2 0 0 0-1.618-2.974q-1.047-1.334-2.736-2.118-1.666-.785-4.141-.785-3.712 0-6.091 1.76-2.379 1.762-2.379 4.545 0 2.356 1.618 3.831 1.642 1.452 5.044 2.308l5.52 1.356q4.593 1.119 6.877 3.546 2.308 2.427 2.308 6.091 0 3.093-1.713 5.496t-4.783 3.784q-3.045 1.356-7.067 1.356-5.354 0-8.828-2.403-3.474-2.427-4.449-6.996l4.069-.999q.784 3.26 3.069 4.925 2.308 1.666 6.068 1.666 4.211 0 6.733-1.88 2.523-1.903 2.523-4.759 0-2.212-1.476-3.712-1.474-1.522-4.473-2.236l-5.972-1.428q-4.76-1.142-7.043-3.617-2.285-2.475-2.285-6.138 0-3.023 1.642-5.306 1.642-2.31 4.521-3.617 2.88-1.31 6.567-1.309 5.02 0 8.019 2.284 3.022 2.26 4.354 6.234"/></svg>