<svg xmlns="http://www.w3.org/2000/svg" width="48" height="48" fill="none"><path fill="#2775CA" fill-rule="evenodd" d="M24 0c13.255 0 24 10.745 24 24S37.255 48 24 48 0 37.255 0 24 10.745 0 24 0m5.484 7.1c-.541-.172-.984.149-.984.717v1.397c0 .381.287.815.645.946C34.889 12.264 39 17.786 39 24.25s-4.11 11.986-9.855 14.09a1 1 0 0 0-.645.946v1.397c0 .568.443.89.984.716C36.744 39.08 42 32.28 42 24.25S36.743 9.42 29.484 7.1m-9.984.717c0-.568-.442-.89-.984-.716C11.256 9.42 6 16.22 6 24.25c0 8.028 5.257 14.829 12.516 17.148.542.173.984-.148.984-.716v-1.397c0-.381-.287-.815-.645-.946C13.111 36.236 9 30.714 9 24.25s4.11-11.986 9.855-14.09c.358-.13.645-.565.645-.946zm5.25 4.433h-1.5a.75.75 0 0 0-.75.75v2.324c-2.974.422-4.896 2.401-4.896 4.94 0 3.286 1.987 4.561 6.18 5.126 2.844.465 3.654 1.078 3.654 2.697s-1.374 2.697-3.31 2.697c-2.62 0-3.481-1.145-3.799-2.629a.76.76 0 0 0-.736-.608h-1.71a.7.7 0 0 0-.694.813c.436 2.496 2.039 4.328 5.311 4.772V35.5c0 .414.336.75.75.75h1.5a.75.75 0 0 0 .75-.75v-2.37c3.098-.491 5.077-2.648 5.077-5.313 0-3.507-2.134-4.684-6.254-5.248-3.04-.441-3.629-1.152-3.629-2.575 0-1.348 1.03-2.305 3.016-2.305 1.797 0 2.83.627 3.257 2.073.096.323.384.55.72.55h1.579c.44 0 .782-.404.688-.833-.5-2.286-2.04-3.657-4.454-4.09V13a.75.75 0 0 0-.75-.75" clip-rule="evenodd"/></svg>